<svg xmlns="http://www.w3.org/2000/svg" viewBox="0 0 30.38 32.23"><defs><style>.cls-1{fill:#fff;}.cls-2{fill:#59ba47;}</style></defs><title>Asset 1</title><g id="Layer_2" data-name="Layer 2"><g id="Capa_04" data-name="Capa 04"><path class="cls-1" d="M0,19.9,14.24,5.71l5.13,5c5.71,5.34.41,14.74-7.12,12.63v5.14a12.49,12.49,0,1,0,0-24.66V6.37q-1.9,1.92-3.83,3.82V3.79L12.17.14a16.11,16.11,0,1,1,.08,32L8.42,28.38V20.75c-.67-.68-1.35-1.35-2-2L2.65,22.51,0,19.88Z"/><path class="cls-2" d="M11.67,18.76c3.52,3.57,8.89-1.83,5.3-5.34l-2.64-2.63c-1.76,1.77-3.51,3.54-5.27,5.3Z"/></g></g></svg>